HIERARCHY
ROOT SpineBase
{
  OFFSET 0.000000 0.000000 0.000000
  CHANNELS 6 Xposition Yposition Zposition Zrotation Xrotation Yrotation
  JOINT SpineMid
  {
    OFFSET 0.000000 25.575891 0.000000
    CHANNELS 3 Zrotation Xrotation Yrotation
    JOINT SpineShoulder
    {
      OFFSET -0.397841 19.065155 -0.313996
      CHANNELS 3 Zrotation Xrotation Yrotation
      JOINT Neck
      {
        OFFSET -0.366135 6.199218 -0.352776
        CHANNELS 3 Zrotation Xrotation Yrotation
        JOINT Head
        {
          OFFSET 0.572976 7.531294 -1.658736
          CHANNELS 3 Zrotation Xrotation Yrotation
          End Site
          {
            OFFSET 0 0 0
          }
        }
      }
      JOINT ShoulderLeft
      {
        OFFSET -9.365283 -6.107656 -9.683759
        CHANNELS 3 Zrotation Xrotation Yrotation
        JOINT ElbowLeft
        {
          OFFSET -3.599095 -15.425684 -3.311589
          CHANNELS 3 Zrotation Xrotation Yrotation
          JOINT WristLeft
          {
            OFFSET 5.105369 -15.556951 -0.706142
            CHANNELS 3 Zrotation Xrotation Yrotation
            JOINT HandLeft
            {
              OFFSET -0.440717 -5.159356 3.185621
              CHANNELS 3 Zrotation Xrotation Yrotation
              JOINT HandTipLeft
              {
                OFFSET -0.910126 -4.228692 -0.296228
                CHANNELS 3 Zrotation Xrotation Yrotation
                End Site
                {
                  OFFSET 0 0 0
                }
              }
              JOINT ThumbLeft
              {
                OFFSET 0.921131 1.475463 -0.864040
                CHANNELS 3 Zrotation Xrotation Yrotation
                End Site
                {
                  OFFSET 0 0 0
                }
              }
            }
          }
        }
      }
      JOINT ShoulderRight
      {
        OFFSET -5.885263 -5.917864 -12.660148
        CHANNELS 3 Zrotation Xrotation Yrotation
        JOINT ElbowRight
        {
          OFFSET 7.421073 -18.842508 4.484242
          CHANNELS 3 Zrotation Xrotation Yrotation
          JOINT WristRight
          {
            OFFSET 0.948403 20.917292 -2.602535
            CHANNELS 3 Zrotation Xrotation Yrotation
            JOINT HandRight
            {
              OFFSET -3.444603 6.357712 1.263221
              CHANNELS 3 Zrotation Xrotation Yrotation
              JOINT HandTipRight
              {
                OFFSET -1.071668 1.707286 -1.602026
                CHANNELS 3 Zrotation Xrotation Yrotation
                End Site
                {
                  OFFSET 0 0 0
                }
              }
              JOINT ThumbRight
              {
                OFFSET -0.532747 0.161606 -0.025030
                CHANNELS 3 Zrotation Xrotation Yrotation
                End Site
                {
                  OFFSET 0 0 0
                }
              }
            }
          }
        }
      }
    }
  }
  JOINT HipLeft
  {
    OFFSET -4.490321 0.080593 -3.460710
    CHANNELS 3 Zrotation Xrotation Yrotation
    JOINT KneeLeft
    {
      OFFSET -4.273016 -31.166988 5.729908
      CHANNELS 3 Zrotation Xrotation Yrotation
      JOINT AnkleLeft
      {
        OFFSET -3.031425 -22.050257 3.064680
        CHANNELS 3 Zrotation Xrotation Yrotation
        JOINT FootLeft
        {
          OFFSET -2.164179 -5.461994 -5.398829
          CHANNELS 3 Zrotation Xrotation Yrotation
          End Site
          {
            OFFSET 0 0 0
          }
        }
      }
    }
  }
  JOINT HipRight
  {
    OFFSET 1.007254 0.512305 -1.576044
    CHANNELS 3 Zrotation Xrotation Yrotation
    JOINT KneeRight
    {
      OFFSET -3.402420 -25.417048 -3.475782
      CHANNELS 3 Zrotation Xrotation Yrotation
      JOINT AnkleRight
      {
        OFFSET -5.844690 -29.277091 6.901101
        CHANNELS 3 Zrotation Xrotation Yrotation
        JOINT FootRight
        {
          OFFSET -4.280647 -7.071775 -6.031308
          CHANNELS 3 Zrotation Xrotation Yrotation
          End Site
          {
            OFFSET 0 0 0
          }
        }
      }
    }
  }
}
MOTION
Frames: 13
Frame Time: 0.033333
178.409276 64.477977 347.423525 -0.000000 0.000000 -18.922618 0.000000 -0.000000 18.922618 -0.000000 0.000000 0.000000 -0.000000 0.000000 0.000000 0.000000 0.000000 0.000000 -0.000000 0.000000 0.000000 -0.000000 0.000000 0.000000 -0.000000 0.000000 0.000000 -0.000000 0.000000 0.000000 0.000000 0.000000 0.000000 0.000000 0.000000 0.000000 -0.000000 0.000000 0.000000 -0.000000 0.000000 0.000000 -0.000000 0.000000 0.000000 -0.000000 0.000000 0.000000 0.000000 0.000000 0.000000 0.000000 0.000000 0.000000 0.000000 -0.000000 18.922618 -0.000000 0.000000 0.000000 -0.000000 0.000000 0.000000 0.000000 0.000000 0.000000 0.000000 -0.000000 18.922618 -0.000000 0.000000 0.000000 -0.000000 0.000000 0.000000 0.000000 0.000000 0.000000
177.561780 64.858906 347.629378 -0.393578 -1.015585 -17.445676 0.455011 -0.178305 17.410673 -0.721271 0.386679 -0.058389 -4.477830 6.172811 -1.138315 0.000000 0.000000 0.000000 0.173382 -0.626397 0.578331 -4.251904 1.436169 -0.197542 7.223036 8.603331 0.408465 3.804856 -9.408943 -0.215189 0.000000 0.000000 0.000000 0.000000 0.000000 0.000000 1.265174 1.637450 0.481767 1.999992 1.162135 -0.186462 -7.526945 -6.227963 -2.070160 -11.257757 23.752103 3.727547 0.000000 0.000000 0.000000 0.000000 0.000000 0.000000 0.919321 6.846060 17.126292 -2.956366 -9.933369 0.660863 -6.950656 6.491184 6.495084 0.000000 0.000000 0.000000 1.699148 2.018756 17.092556 -4.128613 -1.995074 0.021903 -6.293237 11.095667 2.398525 0.000000 0.000000 0.000000
177.004888 65.212707 347.793573 -0.565426 -1.789940 -16.174991 0.714270 -0.338136 16.108609 -1.212902 0.633413 -0.087740 -7.891460 10.498932 -1.567874 0.000000 0.000000 0.000000 0.250798 -1.276940 1.047214 -7.247773 2.828721 -0.194305 13.092147 16.608209 0.576411 6.368718 -17.675081 0.505655 0.000000 0.000000 0.000000 0.000000 0.000000 0.000000 2.401914 3.029778 0.918690 3.835862 1.988777 -0.388164 -15.225215 -11.207585 -4.483340 -18.107737 37.328378 11.804824 0.000000 0.000000 0.000000 0.000000 0.000000 0.000000 1.906024 13.520262 15.353666 -5.701898 -18.747749 0.898117 -11.890792 11.230477 11.533505 0.000000 0.000000 0.000000 2.538331 3.273749 15.584662 -6.692639 -3.389704 -0.072181 -15.023433 22.658433 6.739849 0.000000 0.000000 0.000000
176.738598 65.539380 347.916111 -0.511197 -2.317104 -15.119983 0.778372 -0.463463 15.037206 -1.473318 0.734554 -0.101934 -10.443373 13.122806 -1.673970 0.000000 0.000000 0.000000 0.210518 -1.976473 1.420765 -9.407171 4.156854 -0.070738 17.961892 23.512428 0.542783 7.788585 -24.257244 1.392133 0.000000 0.000000 0.000000 0.000000 0.000000 0.000000 3.417913 4.164265 1.314359 5.467875 2.462294 -0.586887 -22.990461 -14.864895 -6.986764 -21.398951 45.006365 20.038962 0.000000 0.000000 0.000000 0.000000 0.000000 0.000000 2.795916 19.687638 13.640669 -8.167161 -26.478430 0.813462 -15.122980 15.068244 14.818877 0.000000 0.000000 0.000000 2.493363 3.859535 14.470615 -7.703457 -4.147447 -0.195493 -24.650978 32.611344 12.262003 0.000000 0.000000 0.000000
176.762912 65.838924 347.996992 -0.227553 -2.592362 -14.270253 0.648441 -0.543202 14.191630 -1.501938 0.685955 -0.108775 -12.269756 14.204526 -1.689554 0.000000 0.000000 0.000000 0.037793 -2.745584 1.710134 -10.981581 5.424676 0.126750 22.009559 28.993705 0.400363 7.988149 -28.894288 1.733415 0.000000 0.000000 0.000000 0.000000 0.000000 0.000000 4.317720 5.029361 1.672878 6.861832 2.576012 -0.763764 -30.673615 -17.221969 -9.300682 -21.266267 49.793768 26.860581 0.000000 0.000000 0.000000 0.000000 0.000000 0.000000 3.383521 24.991520 12.061787 -10.187975 -33.014666 0.540725 -16.896322 18.561901 16.354153 0.000000 0.000000 0.000000 1.550534 3.837183 13.760494 -7.173834 -4.258901 -0.301102 -32.367113 39.828845 16.597365 0.000000 0.000000 0.000000
177.077828 66.111341 348.036215 0.287752 -2.611908 -13.601647 0.325269 -0.570910 13.547335 -1.298848 0.484445 -0.109692 -13.447373 13.831933 -1.734488 0.000000 0.000000 0.000000 -0.276508 -3.601421 1.923823 -12.118535 6.647768 0.370380 25.302110 32.910155 0.280511 6.824145 -31.491774 0.985529 0.000000 0.000000 0.000000 0.000000 0.000000 0.000000 5.101922 5.614592 1.999415 7.990426 2.332703 -0.900666 -38.116529 -18.375670 -11.147026 -17.377117 53.077269 31.533048 0.000000 0.000000 0.000000 0.000000 0.000000 0.000000 3.446950 29.119572 10.723792 -11.536239 -38.202850 0.270435 -17.286081 22.048004 16.115902 0.000000 0.000000 0.000000 -0.293573 3.235103 13.412650 -5.119556 -3.732998 -0.383905 -35.344907 44.558514 16.984106 0.000000 0.000000 0.000000
177.749128 66.303708 348.037671 1.029660 -2.299743 -14.116543 -0.367069 -0.271714 14.104763 -0.588748 -0.284297 -0.107305 -15.492553 9.794184 -2.088894 0.000000 0.000000 0.000000 -0.491209 -5.634424 2.247646 -10.587195 10.266270 0.786073 24.009175 28.203914 1.524052 -0.766499 -20.885497 -6.189289 0.000000 0.000000 0.000000 0.000000 0.000000 0.000000 7.184897 6.186297 2.614149 8.198022 1.943693 -1.391915 -55.030611 -16.612371 -11.202640 7.161203 55.966919 28.632061 0.000000 0.000000 0.000000 0.000000 0.000000 0.000000 2.012706 33.088276 10.782939 -12.419917 -43.561534 0.015410 -19.911655 28.021482 17.571772 0.000000 0.000000 0.000000 -3.111291 3.744550 14.108168 -2.033454 -3.612285 -0.426971 -37.532667 45.659447 16.575200 0.000000 0.000000 0.000000
178.950882 66.679173 348.147292 2.592682 -1.979853 -16.170995 -1.271615 -0.389529 16.213954 -0.095842 -0.517913 -0.054341 -14.436380 7.055476 -2.051817 0.000000 0.000000 0.000000 0.116439 -6.576570 2.044769 -13.734630 11.418702 1.794815 26.126230 29.644109 1.368175 -3.835594 -16.808632 -9.203984 0.000000 0.000000 0.000000 0.000000 0.000000 0.000000 9.758094 4.622904 2.763393 8.451303 2.449911 -1.440057 -67.677611 -15.897323 -12.124257 31.350948 53.335624 20.082799 0.000000 0.000000 0.000000 0.000000 0.000000 0.000000 -2.729900 32.994183 13.426556 -9.639149 -44.156989 1.398332 -17.754016 32.214196 13.270009 0.000000 0.000000 0.000000 -8.626397 2.768763 16.694049 3.879932 -4.059070 -0.234935 -20.035702 43.378137 -0.172209 0.000000 0.000000 0.000000
179.959500 66.778168 348.044846 3.801887 -1.241636 -14.140466 -1.639542 -0.458931 14.202738 0.477012 -0.566430 0.036767 -16.144281 3.134406 -2.482772 0.000000 0.000000 0.000000 -1.236222 -7.395314 1.983686 -14.189326 11.548119 1.893306 29.311824 32.417014 1.870833 -5.981113 -20.275466 -10.845712 0.000000 0.000000 0.000000 0.000000 0.000000 0.000000 12.421565 4.635942 3.661713 6.993433 0.709776 -1.945016 -65.211732 -15.003903 -11.284906 24.564974 55.025058 25.711899 0.000000 0.000000 0.000000 0.000000 0.000000 0.000000 -2.161418 30.556021 11.174098 -10.083436 -41.848158 0.908578 -7.106954 32.362834 1.838918 0.000000 0.000000 0.000000 -14.086509 -0.780727 15.313142 13.241571 -1.044818 -0.316351 -8.487918 32.786409 -11.823023 0.000000 0.000000 0.000000
181.113278 68.823522 348.058135 4.435989 -0.142970 -14.006547 -1.681955 -0.739938 14.049261 0.663357 -0.567600 0.106476 -15.795047 -3.559806 -2.743626 0.000000 0.000000 0.000000 -3.673726 -6.904078 1.844434 -12.532439 9.662945 1.152526 33.048401 36.958745 2.013841 -16.338657 -28.526859 -14.960923 0.000000 0.000000 0.000000 0.000000 0.000000 0.000000 3.299672 7.729562 3.576930 13.566606 -5.295559 0.020149 -57.986798 -12.672804 -8.168059 25.804190 49.664957 23.006861 0.000000 0.000000 0.000000 0.000000 0.000000 0.000000 -2.292086 31.364772 10.706438 -11.553352 -43.753831 0.088764 5.872839 32.258300 -12.108075 0.000000 0.000000 0.000000 -15.457684 -2.370004 14.993261 16.686478 0.026752 -0.126366 0.983146 16.232663 -16.513243 0.000000 0.000000 0.000000
181.388858 66.500202 346.619059 4.330556 0.564484 -14.753975 -1.558383 -0.846927 14.774506 0.417718 -0.259474 0.126501 -13.425937 -4.545810 -2.463566 0.000000 0.000000 0.000000 -3.416016 -8.909814 2.034825 -12.713168 8.967542 0.340290 30.668929 31.893468 2.906792 -7.484057 -29.781231 -8.378430 0.000000 0.000000 0.000000 0.000000 0.000000 0.000000 -0.119257 7.822045 3.382328 12.172540 -6.634245 -0.179630 -49.688400 -12.127034 -6.701152 30.399038 41.939456 18.133751 0.000000 0.000000 0.000000 0.000000 0.000000 0.000000 0.548032 29.794407 11.523530 -15.590835 -43.472964 -1.721770 12.690549 37.649352 -20.722775 0.000000 0.000000 0.000000 -14.124945 -10.909436 16.071910 18.967654 8.649516 -3.082254 4.856511 19.288464 -23.184325 0.000000 0.000000 0.000000
182.017603 61.140952 345.328992 4.375947 0.964065 0.220545 -1.523189 -0.756195 -0.199860 0.435928 -0.348369 0.137960 -13.039856 -1.037108 -2.288474 0.000000 0.000000 0.000000 -5.383285 -9.125550 2.309515 -10.730479 11.269223 0.709967 32.675305 30.165664 4.149256 -4.164245 -27.887297 -8.926045 0.000000 0.000000 0.000000 0.000000 0.000000 0.000000 -2.698999 7.979682 3.051214 12.497828 -6.433832 -0.065210 -43.562695 -10.932186 -5.256555 26.619459 39.053067 18.037448 0.000000 0.000000 0.000000 0.000000 0.000000 0.000000 9.658834 20.515466 -3.294605 -18.744701 -32.654418 -3.351433 15.010771 36.505820 -21.717190 0.000000 0.000000 0.000000 -16.177845 -14.352533 1.541583 18.579754 15.104736 -5.522028 13.068624 21.617468 -31.733648 0.000000 0.000000 0.000000
181.734145 58.650836 345.386126 4.871969 0.286426 3.542094 -1.314935 -1.150614 -3.478208 0.519714 -0.543332 0.123302 -12.700607 8.539445 -1.777512 0.000000 0.000000 0.000000 -12.117144 -6.497268 3.136944 -2.259542 8.634294 -1.948413 31.240425 33.512707 3.751088 2.709221 -30.545375 -5.571955 0.000000 0.000000 0.000000 0.000000 0.000000 0.000000 -2.249286 11.109742 3.993872 8.690460 -6.804703 -1.682702 -36.320277 -13.522776 -7.031520 4.381631 47.620319 24.906268 0.000000 0.000000 0.000000 0.000000 0.000000 0.000000 9.609709 12.198017 -4.407641 -17.696419 -19.582546 -2.873104 10.168845 32.871830 -16.338560 0.000000 0.000000 0.000000 -18.942895 -13.457041 -1.475838 20.261597 16.491502 -6.412434 13.164177 17.902347 -30.010661 0.000000 0.000000 0.000000
